<?xml version="1.0" standalone="no"?>
<!DOCTYPE svg PUBLIC "-//W3C//DTD SVG 20010904//EN"
 "http://www.w3.org/TR/2001/REC-SVG-20010904/DTD/svg10.dtd">
<svg version="1.0" xmlns="http://www.w3.org/2000/svg"
 width="260.000000pt" height="260.000000pt" viewBox="0 0 260.000000 260.000000"
 preserveAspectRatio="xMidYMid meet">
<metadata>
Created by potrace 1.14, written by Peter Selinger 2001-2017
</metadata>
<g transform="translate(0.000000,260.000000) scale(0.100000,-0.100000)"
fill="#000000" stroke="none">
<path d="M1380 2059 c-11 -8 -9 -9 10 -4 24 7 24 7 5 -8 -11 -8 -24 -13 -30
-9 -5 3 -3 -3 5 -13 9 -11 10 -16 3 -11 -7 4 -13 3 -13 -2 0 -6 -7 -13 -16
-16 -15 -6 -15 -4 -3 11 13 16 12 17 -4 4 -10 -8 -16 -20 -13 -27 4 -11 -28
-28 -47 -25 -5 1 -6 -3 -2 -9 3 -6 11 -7 17 -4 7 4 8 2 4 -4 -4 -7 -13 -12
-21 -12 -8 0 -17 -5 -21 -12 -4 -7 -3 -8 4 -4 8 5 10 2 6 -8 -5 -14 -8 -14
-21 -1 -13 13 -33 13 -33 -1 0 -3 5 -2 12 2 7 4 8 3 4 -4 -5 -8 -13 -9 -25 -2
-10 5 -22 6 -26 2 -5 -4 -5 -2 -2 5 9 15 -2 45 -14 37 -5 -3 -9 2 -9 11 0 11
-5 15 -15 12 -8 -4 -17 -1 -21 5 -5 7 -2 8 6 3 10 -6 12 -4 7 9 -4 10 -7 20
-7 22 0 2 -5 4 -11 4 -5 0 -7 -5 -3 -12 5 -7 3 -8 -5 -4 -7 5 -10 15 -6 24 4
12 1 12 -16 -4 -12 -10 -20 -14 -16 -8 3 6 0 11 -8 11 -8 0 -11 -5 -8 -10 6
-10 1 -9 -44 10 -7 3 -13 0 -13 -7 0 -6 -5 -8 -12 -4 -16 10 -88 11 -88 2 0
-5 -5 -7 -11 -6 -6 2 -14 -3 -17 -11 -3 -9 0 -11 7 -6 9 5 9 1 0 -14 -9 -14
-16 -17 -21 -8 -5 8 -9 6 -14 -6 -3 -9 -11 -14 -17 -10 -6 4 -8 0 -4 -10 3
-10 2 -17 -4 -17 -6 0 -7 -4 -4 -10 3 -5 -1 -10 -10 -10 -9 0 -13 5 -10 11 4
6 -2 5 -13 -2 -17 -11 -18 -15 -6 -26 16 -16 18 -24 7 -22 -20 3 -26 -2 -13
-11 11 -7 11 -10 2 -10 -7 0 -10 -5 -7 -10 4 -6 11 -7 17 -4 7 4 8 2 4 -4 -4
-7 -15 -12 -26 -12 -10 0 -21 -7 -24 -16 -3 -9 -11 -12 -18 -8 -8 5 -8 1 2
-12 8 -10 11 -16 6 -12 -11 9 -48 -31 -42 -47 3 -10 0 -12 -11 -8 -13 5 -14 3
-4 -15 11 -20 8 -26 -12 -23 -4 0 -6 -2 -6 -6 3 -20 -2 -24 -15 -14 -12 10
-14 9 -12 -5 3 -22 -26 -54 -36 -40 -5 7 -8 4 -8 -6 0 -10 -4 -18 -10 -18 -12
0 -9 -22 5 -32 6 -5 4 -8 -5 -8 -13 0 -13 -1 0 -10 11 -7 11 -10 2 -10 -7 0
-10 -4 -7 -10 3 -5 1 -10 -5 -10 -6 0 -8 -5 -4 -12 4 -7 3 -8 -5 -4 -6 4 -9
13 -5 19 3 7 -1 4 -9 -5 -8 -10 -17 -15 -20 -12 -3 3 -3 -3 0 -14 2 -11 -1
-23 -8 -27 -7 -5 -10 -4 -5 3 4 6 -1 10 -13 9 -11 0 -17 -5 -14 -10 2 -4 -1
-14 -7 -22 -10 -12 -10 -15 0 -15 10 0 10 -3 1 -14 -8 -10 -9 -16 -1 -21 13
-8 13 -25 -1 -25 -5 0 -7 6 -4 13 4 6 0 4 -8 -5 -8 -10 -17 -15 -20 -11 -4 3
-7 1 -7 -6 0 -7 -5 -9 -12 -5 -7 5 -8 3 -4 -5 5 -7 0 -19 -10 -27 -11 -9 -13
-12 -5 -8 10 5 12 3 7 -5 -6 -9 -11 -9 -21 -1 -9 8 -14 6 -19 -5 -3 -8 -1 -15
5 -15 6 0 7 -5 4 -10 -4 -6 -12 -7 -18 -3 -7 4 -4 -6 7 -21 10 -16 13 -25 7
-22 -6 4 -11 1 -11 -8 0 -8 6 -17 13 -19 9 -4 9 -6 0 -6 -7 -1 -13 -9 -13 -18
0 -15 2 -16 10 -3 6 9 10 10 10 3 0 -6 -4 -15 -10 -18 -5 -3 -10 -15 -10 -26
0 -14 4 -18 13 -13 7 5 7 1 -2 -10 -13 -15 -13 -19 0 -27 11 -7 11 -9 0 -9
-11 0 -11 -3 0 -17 10 -11 10 -14 2 -9 -8 4 -13 1 -13 -8 0 -9 4 -16 9 -16 5
0 13 -10 17 -22 6 -20 7 -20 16 -3 8 14 12 15 19 4 7 -11 9 -11 9 -1 0 7 5 10
10 7 6 -4 8 -11 5 -16 -4 -5 3 -9 14 -9 15 0 19 -5 16 -21 -3 -16 -1 -18 9
-10 10 8 19 4 37 -16 13 -15 16 -21 6 -14 -15 12 -17 12 -11 -3 3 -9 12 -16
20 -16 8 0 14 -4 14 -10 0 -5 8 -10 18 -11 9 0 12 -3 5 -6 -10 -3 -10 -7 0
-18 9 -9 14 -10 19 -1 6 8 8 8 8 -1 0 -7 7 -13 15 -13 8 0 15 6 15 13 0 9 3 8
9 -2 5 -7 13 -11 19 -7 6 3 14 1 18 -5 4 -8 3 -9 -4 -5 -17 10 -15 -3 3 -21 8
-8 13 -19 9 -24 -3 -5 -2 -9 3 -8 19 3 43 -2 42 -8 -3 -20 3 -29 21 -30 13 -1
18 2 13 10 -4 7 0 6 10 -2 9 -7 24 -11 32 -7 12 4 15 0 13 -17 -2 -16 3 -23
20 -25 12 -2 20 -8 17 -13 -6 -8 9 -13 29 -10 5 1 3 -6 -5 -15 -12 -15 -12
-17 0 -9 10 6 13 4 9 -7 -5 -12 3 -14 45 -11 34 3 47 1 39 -5 -11 -7 -11 -10
2 -15 10 -4 13 -13 10 -24 -3 -10 -2 -14 3 -8 12 15 40 14 40 -1 0 -7 -5 -10
-11 -7 -6 3 -1 -4 12 -16 12 -12 26 -19 32 -16 14 9 28 -28 19 -50 -4 -11 -8
-14 -8 -7 -1 7 -6 10 -11 7 -6 -4 -8 -12 -4 -18 3 -7 -2 -3 -10 7 -12 15 -16
16 -16 5 0 -12 -2 -12 -9 0 -7 11 -9 11 -14 0 -4 -11 -6 -11 -6 -1 -1 7 -5 11
-11 7 -5 -3 -6 -13 -3 -22 4 -9 2 -14 -3 -10 -5 3 -10 -3 -10 -13 0 -14 3 -16
13 -8 8 7 13 7 13 0 0 -5 9 -12 21 -15 15 -4 19 -2 15 9 -4 11 -2 12 14 4 24
-13 33 -13 24 1 -5 8 -1 8 13 0 11 -6 22 -9 24 -7 2 2 13 -6 24 -18 11 -11 16
-18 10 -13 -17 13 -27 7 -12 -7 16 -16 88 -17 99 -1 5 6 8 5 8 -3 0 -7 4 -11
9 -8 4 3 21 -6 37 -20 22 -18 24 -23 9 -18 -20 7 -20 7 0 -9 14 -11 22 -12 27
-4 4 7 12 6 24 -4 11 -9 15 -9 10 -1 -4 7 -2 12 8 12 8 0 18 -5 21 -10 4 -7
11 -7 18 -2 8 6 19 3 32 -11 11 -11 14 -17 8 -13 -7 4 -13 4 -13 1 0 -3 16
-13 35 -21 19 -8 35 -20 35 -27 0 -8 -4 -7 -10 3 -9 13 -10 13 -10 0 0 -20 37
-43 46 -29 4 8 9 7 15 -2 6 -10 9 -11 9 -1 0 6 8 12 18 12 14 0 15 -2 2 -10
-9 -6 -10 -10 -3 -10 6 0 15 5 18 10 3 5 14 10 23 10 15 0 15 -2 2 -10 -9 -6
-10 -10 -3 -10 6 0 15 5 19 11 4 8 9 7 15 -2 5 -8 9 -9 9 -3 0 7 13 10 30 9
17 -1 33 1 36 6 3 5 11 9 17 9 7 0 6 -4 -3 -10 -9 -6 -10 -10 -3 -10 19 0 27
21 12 31 -13 8 -5 13 16 9 5 -1 1 9 -10 21 -11 12 -14 19 -7 15 9 -5 12 -3 10
7 -2 9 -1 15 2 15 3 -1 15 4 28 11 16 8 21 18 17 29 -3 9 -3 13 1 9 4 -4 13 1
21 11 8 9 12 11 8 5 -4 -8 -1 -11 9 -7 8 3 12 12 9 20 -3 8 6 18 24 26 37 16
36 15 27 30 -13 20 -14 39 -2 31 7 -4 9 2 6 15 -4 12 -1 25 4 29 7 4 8 1 4 -8
-4 -8 -1 -6 8 5 8 10 19 15 25 12 6 -4 8 2 6 15 -3 16 0 19 12 15 11 -5 14 -2
9 9 -4 11 0 15 12 13 12 -2 16 3 15 20 -2 15 1 21 9 16 7 -4 8 -3 4 4 -12 20
-16 53 -5 47 5 -4 6 -12 3 -18 -4 -7 -3 -8 2 -4 5 5 9 14 9 20 1 7 7 11 14 9
9 -2 11 3 7 13 -3 9 -2 13 4 10 6 -3 10 -1 10 5 0 6 5 8 12 4 7 -5 9 -2 5 9
-6 15 17 32 32 23 4 -3 7 4 8 14 1 11 -2 22 -8 25 -5 4 -5 13 1 24 5 10 6 21
2 25 -3 4 1 4 11 0 10 -4 17 -1 17 6 0 7 6 10 14 7 9 -4 13 2 12 16 -1 15 4
22 17 21 9 -1 17 2 17 8 0 5 6 6 13 2 7 -5 6 0 -3 11 -9 11 -10 16 -2 11 6 -4
12 -2 12 3 0 6 -6 11 -12 11 -9 0 -8 4 2 10 13 9 13 10 0 10 -12 0 -12 2 -2 9
8 4 14 12 15 17 1 5 9 8 19 8 11 -1 14 4 10 14 -3 8 -1 13 4 9 5 -3 11 6 12
19 1 18 -2 23 -11 18 -8 -5 -7 -2 2 9 11 14 11 17 0 17 -8 0 -6 5 6 13 14 11
15 16 5 22 -9 6 -11 4 -5 -5 5 -9 4 -11 -4 -6 -8 6 -9 12 -2 20 7 9 7 17 -2
26 -9 10 -9 11 1 6 8 -5 12 0 12 14 0 12 -4 18 -10 15 -5 -3 -10 1 -10 9 0 10
-6 13 -17 9 -13 -5 -15 -2 -10 11 4 9 3 15 -2 11 -5 -3 -12 -1 -15 4 -3 5 1
12 10 15 13 5 14 9 4 21 -7 8 -10 22 -6 30 3 9 2 14 -3 10 -5 -3 -11 -2 -14 2
-2 5 -3 3 -1 -3 1 -6 -4 -11 -12 -11 -7 0 -11 4 -8 9 3 5 -6 7 -20 4 -15 -3
-26 0 -26 6 0 7 -5 7 -14 -1 -11 -9 -12 -4 -6 29 5 27 4 40 -4 40 -6 0 -4 5 4
10 13 9 13 10 0 10 -13 0 -13 1 0 10 13 9 13 10 0 10 -12 0 -12 2 -2 9 8 4 14
12 15 17 1 5 8 9 16 11 7 1 19 7 25 14 8 9 6 10 -9 5 -19 -6 -19 -5 -2 8 12 9
15 16 7 21 -8 5 -6 14 5 32 10 14 12 23 7 19 -6 -3 -13 -2 -16 3 -4 5 -2 12 4
16 7 4 6 13 -1 27 -10 18 -9 20 5 15 9 -4 16 -5 16 -3 0 9 -39 46 -49 46 -7 0
-9 5 -5 12 5 8 2 9 -11 4 -15 -5 -16 -4 -5 9 10 12 10 15 -4 15 -10 0 -14 4
-11 10 4 6 -1 7 -11 3 -13 -5 -16 -3 -11 10 3 9 3 16 -2 14 -5 -1 -18 9 -30
23 -13 14 -19 19 -15 11 4 -9 3 -12 -4 -7 -6 3 -14 21 -18 39 -6 28 -8 29 -15
12 -4 -11 -8 -14 -8 -6 -1 7 -7 11 -15 8 -7 -3 -19 0 -26 6 -10 10 -12 8 -6
-7 5 -16 4 -17 -9 -6 -8 7 -14 18 -13 24 1 6 -20 33 -46 60 -27 27 -42 38 -35
25 11 -22 11 -23 -5 -9 -10 8 -31 13 -46 12 -24 -2 -28 1 -25 18 2 11 -1 23
-7 26 -7 5 -8 2 -4 -7 4 -8 1 -6 -7 4 -11 14 -16 15 -20 5 -4 -8 -6 -7 -6 5
-1 9 -6 17 -12 17 -6 0 -9 8 -7 18 4 14 -1 18 -23 17 -15 0 -25 -3 -22 -7 2
-5 -7 -4 -20 1 -14 6 -28 7 -32 3 -4 -4 -2 3 4 16 11 21 6 28 -21 23 -5 0 -8
4 -8 10 0 8 -6 7 -17 -2 -9 -8 -14 -9 -10 -3 8 13 -59 14 -80 1 -6 -4 -14 -3
-18 3 -8 13 -26 13 -45 -1z m475 -200 c11 -16 1 -19 -13 -3 -7 8 -8 14 -3 14
5 0 13 -5 16 -11z"/>
<path d="M660 1750 c-8 -5 -12 -11 -10 -14 3 -2 14 2 24 10 22 15 10 19 -14 4z"/>
<path d="M11 891 c-21 -13 -9 -56 16 -59 13 -2 23 -10 23 -19 0 -23 32 -44 47
-31 8 6 13 7 13 1 0 -5 7 -10 15 -10 8 0 13 3 10 5 -3 3 2 16 10 29 14 21 14
23 0 23 -10 0 -13 5 -9 13 5 8 2 8 -9 -2 -14 -11 -17 -11 -17 0 0 9 -3 10 -8
4 -11 -16 -44 -15 -61 3 -15 15 -15 15 1 9 10 -3 20 -2 23 3 4 6 -1 10 -9 10
-8 0 -19 7 -23 15 -5 9 -13 11 -22 6z"/>
<path d="M153 795 c0 -8 4 -12 9 -9 5 3 6 10 3 15 -9 13 -12 11 -12 -6z"/>
<path d="M205 775 c2 -17 -1 -33 -8 -38 -8 -6 -6 -7 6 -3 9 3 17 0 17 -6 0 -6
8 -1 19 10 10 12 22 18 26 14 4 -4 2 3 -6 15 -9 16 -17 19 -25 12 -9 -7 -16
-5 -23 8 -9 15 -10 13 -6 -12z"/>
<path d="M340 745 c-1 -5 -2 -14 -1 -19 1 -5 -6 -3 -15 5 -12 9 -15 9 -10 2 4
-7 3 -13 -3 -13 -7 0 -7 -9 1 -25 8 -19 14 -22 20 -13 6 10 8 10 8 -1 0 -10 3
-11 13 -2 8 6 17 7 21 3 4 -4 13 -7 19 -7 7 0 14 -13 16 -30 3 -26 4 -28 11
-10 8 17 9 18 9 2 1 -15 4 -16 22 -6 15 8 19 8 15 0 -4 -6 -2 -11 3 -11 6 0
11 5 11 11 0 8 4 8 13 1 10 -8 13 -6 14 10 3 34 -15 60 -34 49 -11 -5 -26 -5
-41 0 -23 9 -24 8 -11 -8 9 -11 10 -14 2 -9 -7 4 -18 16 -23 26 -8 16 -8 18 5
14 27 -11 16 4 -15 20 -17 8 -28 10 -25 5 4 -5 2 -9 -4 -9 -5 0 -12 6 -14 13
-3 6 -6 8 -7 2z"/>
<path d="M581 633 c-6 -10 -11 -13 -11 -8 0 6 -5 3 -10 -5 -13 -20 -12 -30 1
-30 5 0 7 5 3 12 -4 7 -3 8 4 4 6 -4 9 -13 5 -22 -6 -16 17 -16 29 1 5 6 8 6
8 -1 0 -13 45 -11 45 2 0 5 4 14 8 21 5 7 0 16 -13 23 -15 8 -20 8 -20 -2 0
-8 -5 -6 -11 5 -5 9 -14 17 -19 17 -5 0 -14 -8 -19 -17z"/>
<path d="M663 593 c4 -6 3 -22 -2 -36 -9 -24 -8 -25 29 -23 33 1 37 -1 27 -14
-8 -10 -3 -9 17 4 16 10 25 13 22 7 -4 -6 -2 -11 3 -11 6 0 11 5 11 10 0 6 11
3 25 -6 14 -9 23 -20 20 -24 -3 -4 5 -10 16 -13 14 -4 18 -10 13 -19 -6 -10
-4 -10 9 1 9 7 24 11 32 7 8 -3 15 -1 15 5 0 6 4 8 9 5 5 -3 14 1 21 9 11 13
10 14 -2 10 -8 -3 -21 2 -29 12 -13 17 -13 17 6 3 18 -14 19 -14 7 2 -7 9 -24
19 -38 22 -21 6 -24 9 -13 22 6 8 9 17 5 21 -3 3 -6 1 -6 -7 0 -9 -3 -10 -13
-1 -8 6 -17 8 -20 5 -10 -10 -58 -13 -52 -4 3 5 -4 8 -15 7 -11 -1 -20 -6 -20
-12 0 -5 -5 -3 -10 5 -9 13 -10 13 -10 0 0 -13 -1 -13 -10 0 -5 8 -12 11 -16
7 -4 -4 -14 -1 -22 6 -11 8 -14 8 -9 0z"/>
<path d="M1050 521 c0 -6 4 -13 10 -16 6 -3 7 1 4 9 -7 18 -14 21 -14 7z"/>
<path d="M1804 231 c4 -6 1 -11 -7 -11 -8 0 -18 -7 -21 -16 -5 -14 -4 -15 8
-5 12 10 14 9 9 -7 -2 -11 1 -23 8 -27 8 -6 10 -4 5 6 -4 8 0 5 8 -5 14 -17
16 -18 16 -3 0 20 4 21 31 7 10 -6 19 -7 19 -2 0 5 8 8 19 7 24 -2 55 -32 41
-40 -5 -3 -10 -12 -9 -18 0 -8 2 -8 6 1 4 10 8 10 21 0 13 -11 14 -11 7 2 -7
13 -6 13 7 2 13 -10 17 -10 22 0 5 10 7 10 12 1 3 -7 10 -13 15 -13 6 0 8 4 5
8 -2 4 4 8 14 8 10 0 16 -4 14 -8 -3 -4 0 -8 5 -8 6 0 11 5 11 11 0 8 6 7 17
-2 15 -12 16 -12 8 1 -7 13 -6 13 7 2 14 -11 17 -10 23 8 3 11 10 18 15 15 5
-3 12 0 16 6 4 8 3 9 -5 5 -6 -4 -14 0 -17 8 -3 9 -10 13 -15 10 -5 -3 -9 0
-9 7 0 7 -7 4 -16 -7 -8 -10 -13 -13 -9 -6 4 7 0 12 -10 12 -10 0 -14 -5 -10
-12 4 -7 -1 -4 -9 6 -16 20 -16 20 -17 0 0 -10 -3 -13 -6 -6 -2 6 -8 10 -12 7
-5 -2 -17 3 -27 11 -10 9 -13 13 -7 9 9 -4 11 -1 7 9 -3 9 -10 13 -15 10 -5
-3 -9 -1 -9 5 0 9 -44 6 -61 -5 -4 -2 -11 1 -15 7 -5 8 -3 9 6 4 9 -5 11 -4 6
4 -4 6 -13 8 -19 4 -16 -10 -48 -10 -71 0 -13 6 -16 6 -12 -2z"/>
<path d="M2166 131 c5 -10 1 -11 -14 -7 -18 6 -20 3 -18 -21 l3 -28 102 -3
c68 -2 101 1 101 8 0 6 4 8 10 5 6 -3 7 1 4 9 -3 9 -10 13 -15 10 -9 -5 -13
10 -9 31 1 5 -7 1 -18 -8 -15 -13 -22 -15 -27 -7 -6 9 -10 9 -16 -1 -6 -10 -9
-11 -9 -1 0 6 -5 12 -11 12 -5 0 -8 -4 -5 -8 3 -5 -1 -9 -9 -9 -8 0 -12 4 -9
9 3 4 0 8 -5 8 -6 0 -11 -6 -11 -12 0 -9 -4 -8 -10 2 -8 13 -10 13 -10 1 0
-11 -4 -10 -16 5 -8 10 -12 13 -8 5z"/>
</g>
</svg>
